<html>
<head>
<meta charset="UTF-8">
<meta name="viewport" content="width=device-width, initial-scale=1.0"/>

<style>
.comment
{
    padding-left: 20px;
    margin-top: 4px;
    margin-right: 4px;
    margin-bottom: 4px;
    border: 2px #000 solid;
}
.submission
{
    border: 4px #00f solid;
    padding-left: 20px;
}
.hidden
{
    display: none;
}
</style>
</head>
<body><div class="submission" id="t3_63yroo">
    <p class="userinfo">
        <a href="https://www.reddit.com/u/beepb0t">beepb0t</a>
        <span class="score"> | 14 points</span>
        <span class="timestamp"> | Apr 07 2017 06:31:54</span>
    </p>
    <strong>[TV] Métal Hurlant Chronicles Season 2 (2012)[Bluray][x264][720p][3.28GB]</strong>
    <p><p>L: https://<strong>mega</strong>.nz/#F!r9xBWSQC
K: <em>!zzGi5rx2b6A</em>3pTwTN*kh_ag</p>
<p>remove * enjoy</p></p>
    <p class="toolbar">
        <a href="https://www.reddit.com/r/megalinks/comments/63yroo">permalink</a>
    </p>
</div>
<div class="comment" id="t1_dfykmen">
    <p class="userinfo">
        <a
        class="toggle_hide_button"
        href="javascript:void(0)"
        onclick="toggle_collapse(this.parentElement.parentElement)">[-]
        </a>
        <a href="https://www.reddit.com/u/Redditor20121">Redditor20121</a>
        <span class="score"> | 2 points</span>
        <span class="timestamp"> | Apr 07 2017 16:02:47</span>
    </p>
    <div class="collapsible">
        <p>Thank You for Uploading!</p>
<p>Are these Blu Ray? Title says Blu Ray but file name says HDTV. Assuming its HDTV release.</p>
        <p class="toolbar">
            <a href="https://www.reddit.com/r/megalinks/comments/63yroo/_/dfykmen">permalink</a>
        </p>
        
    </div>
</div>

<div class="comment" id="t1_dfz5z6i">
    <p class="userinfo">
        <a
        class="toggle_hide_button"
        href="javascript:void(0)"
        onclick="toggle_collapse(this.parentElement.parentElement)">[-]
        </a>
        <a href="https://www.reddit.com/u/Mortos3">Mortos3</a>
        <span class="score"> | 2 points</span>
        <span class="timestamp"> | Apr 07 2017 22:52:11</span>
    </p>
    <div class="collapsible">
        <p>Thanks</p>
        <p class="toolbar">
            <a href="https://www.reddit.com/r/megalinks/comments/63yroo/_/dfz5z6i">permalink</a>
        </p>
        
    </div>
</div>

<div class="comment" id="t1_dfy494a">
    <p class="userinfo">
        <a
        class="toggle_hide_button"
        href="javascript:void(0)"
        onclick="toggle_collapse(this.parentElement.parentElement)">[-]
        </a>
        <a href="https://www.reddit.com/u/dosemeele">dosemeele</a>
        <span class="score"> | 1 points</span>
        <span class="timestamp"> | Apr 07 2017 08:15:06</span>
    </p>
    <div class="collapsible">
        <p>Thank you very much for the contribution. Does the series have subtitles? How many audios does it have? Can you give me the technical data of S01 and S02?</p>
        <p class="toolbar">
            <a href="https://www.reddit.com/r/megalinks/comments/63yroo/_/dfy494a">permalink</a>
        </p>
        <div class="comment" id="t1_dfy7l78">
    <p class="userinfo">
        <a
        class="toggle_hide_button"
        href="javascript:void(0)"
        onclick="toggle_collapse(this.parentElement.parentElement)">[-]
        </a>
        <a href="https://www.reddit.com/u/beepb0t">beepb0t</a>
        <span class="score"> | 1 points</span>
        <span class="timestamp"> | Apr 07 2017 10:57:42</span>
    </p>
    <div class="collapsible">
        <p>General
Unique ID : 226231931326469684013427775351534383813 (0xAA32AF622D73AF19A10EE12CE873F2C5)
Complete name : Downloads/metal.hurlant.chronicles.s02e01.720p.hdtv.x264-aff.mkv
Format : Matroska
Format version : Version 4 / Version 2
File size : 555 MiB
Duration : 21mn 3s
Overall bit rate : 3 687 Kbps
Encoded date : UTC 2015-04-29 16:29:49
Writing application : mkvmerge v6.3.0 ('You can't stop me!') built on Jun 28 2013 20:09:41
Writing library : libebml v1.3.0 + libmatroska v1.4.0</p>
<p>Video
ID : 1
Format : AVC
Format/Info : Advanced Video Codec
Format profile : High@L4.1
Format settings, CABAC : Yes
Format settings, ReFrames : 5 frames
Codec ID : V_MPEG4/ISO/AVC
Duration : 21mn 3s
Bit rate : 3 229 Kbps
Width : 1 280 pixels
Height : 720 pixels
Display aspect ratio : 16:9
Frame rate mode : Constant
Frame rate : 23.976 fps
Color space : YUV
Chroma subsampling : 4:2:0
Bit depth : 8 bits
Scan type : Progressive
Bits/(Pixel*Frame) : 0.146
Stream size : 487 MiB (88%)
Writing library : x264 core 142 r2431 ac76440
Encoding settings : cabac=1 / ref=5 / deblock=1:0:0 / analyse=0x3:0x113 / me=umh / subme=8 / psy=1 / psy_rd=1.00:0.00 / mixed_ref=1 / me_range=16 / chroma_me=1 / trellis=1 / 8x8dct=1 / cqm=0 / deadzone=21,11 / fast_pskip=1 / chroma_qp_offset=-2 / threads=12 / lookahead_threads=2 / sliced_threads=0 / nr=0 / decimate=1 / interlaced=0 / bluray_compat=0 / constrained_intra=0 / bframes=3 / b_pyramid=2 / b_adapt=2 / b_bias=0 / direct=3 / weightb=1 / open_gop=0 / weightp=2 / keyint=250 / keyint_min=25 / scenecut=40 / intra_refresh=0 / rc_lookahead=50 / rc=crf / mbtree=1 / crf=18.0 / qcomp=0.60 / qpmin=0 / qpmax=69 / qpstep=4 / ip_ratio=1.40 / aq=1:1.00
Language : English
Default : Yes
Forced : No</p>
<p>Audio
ID : 2
Format : AC-3
Format/Info : Audio Coding 3
Mode extension : CM (complete main)
Format settings, Endianness : Big
Codec ID : A_AC3
Duration : 21mn 3s
Bit rate mode : Constant
Bit rate : 384 Kbps
Channel(s) : 6 channels
Channel positions : Front: L C R, Side: L R, LFE
Sampling rate : 48.0 KHz
Compression mode : Lossy
Stream size : 57.9 MiB (10%)
Language : English
Default : Yes
Forced : No</p>
<p>Text
ID : 3
Format : UTF-8
Codec ID : S_TEXT/UTF8
Codec ID/Info : UTF-8 Plain Text
Language : Russian
Default : Yes
Forced : No</p>
        <p class="toolbar">
            <a href="https://www.reddit.com/r/megalinks/comments/63yroo/_/dfy7l78">permalink</a>
        </p>
        <div class="comment" id="t1_dfy7m2r">
    <p class="userinfo">
        <a
        class="toggle_hide_button"
        href="javascript:void(0)"
        onclick="toggle_collapse(this.parentElement.parentElement)">[-]
        </a>
        <a href="https://www.reddit.com/u/beepb0t">beepb0t</a>
        <span class="score"> | 1 points</span>
        <span class="timestamp"> | Apr 07 2017 10:58:44</span>
    </p>
    <div class="collapsible">
        <p>all in english, subs are in russian</p>
        <p class="toolbar">
            <a href="https://www.reddit.com/r/megalinks/comments/63yroo/_/dfy7m2r">permalink</a>
        </p>
        
    </div>
</div>
    </div>
</div>
    </div>
</div>

<div class="comment" id="t1_dg9p8dy">
    <p class="userinfo">
        <a
        class="toggle_hide_button"
        href="javascript:void(0)"
        onclick="toggle_collapse(this.parentElement.parentElement)">[-]
        </a>
        <a href="https://www.reddit.com/u/halva-bretta-grammar">halva-bretta-grammar</a>
        <span class="score"> | 1 points</span>
        <span class="timestamp"> | Apr 14 2017 20:27:40</span>
    </p>
    <div class="collapsible">
        <p>Fucking HBO needs to adapt this. The French are good at animation and movies, but it's the French, they can't into marketing for shit. </p>
        <p class="toolbar">
            <a href="https://www.reddit.com/r/megalinks/comments/63yroo/_/dg9p8dy">permalink</a>
        </p>
        
    </div>
</div>
</body>

<script>
function toggle_collapse(comment_div)
{
    var button = comment_div.getElementsByClassName("toggle_hide_button")[0];
    var collapsible = comment_div.getElementsByClassName("collapsible")[0];
    if (collapsible.classList.contains("hidden"))
    {
        collapsible.classList.remove("hidden");
        button.innerText = "[-]";
    }
    else
    {
        collapsible.classList.add("hidden");
        button.innerText = "[+]";
    }
}
</script>
</html>
